<?xml version="1.0" encoding="UTF-8"?>
<svg xmlns="http://www.w3.org/2000/svg" xmlns:xlink="http://www.w3.org/1999/xlink" width="45px" height="25px" viewBox="0 0 45 25" version="1.1">
<g id="surface1">
<path style=" stroke:none;fill-rule:nonzero;fill:rgb(9.019608%,28.235295%,97.647059%);fill-opacity:1;" d="M 15.914062 1.15625 C 16.378906 1.15625 16.84375 1.15625 17.324219 1.15625 C 18.304688 1.15625 19.28125 1.15625 20.261719 1.160156 C 21.75 1.164062 23.238281 1.160156 24.730469 1.15625 C 25.683594 1.15625 26.640625 1.15625 27.597656 1.15625 C 28.035156 1.15625 28.476562 1.15625 28.929688 1.152344 C 32.582031 1.171875 36.277344 1.414062 39.066406 2.785156 C 39.367188 2.925781 39.671875 3.066406 39.984375 3.210938 C 42.574219 4.953125 42.839844 6.6875 42.8125 8.855469 C 42.816406 9.273438 42.816406 9.273438 42.816406 9.703125 C 42.820312 10.292969 42.816406 10.882812 42.808594 11.472656 C 42.796875 12.375 42.808594 13.273438 42.820312 14.171875 C 42.816406 14.75 42.816406 15.324219 42.8125 15.898438 C 42.816406 16.167969 42.820312 16.433594 42.824219 16.710938 C 42.777344 18.878906 41.8125 20.226562 39.121094 21.851562 C 35.707031 23.113281 32.523438 23.445312 28.445312 23.410156 C 27.945312 23.410156 27.441406 23.410156 26.925781 23.410156 C 25.875 23.410156 24.820312 23.402344 23.769531 23.394531 C 22.164062 23.386719 20.5625 23.386719 18.957031 23.390625 C 17.929688 23.386719 16.902344 23.382812 15.871094 23.378906 C 15.160156 23.378906 15.160156 23.378906 14.433594 23.382812 C 10.800781 23.347656 8.285156 22.878906 5.261719 21.824219 C 2.074219 20.039062 1.585938 18.1875 1.636719 15.796875 C 1.636719 15.511719 1.636719 15.226562 1.632812 14.929688 C 1.632812 14.332031 1.640625 13.730469 1.652344 13.132812 C 1.664062 12.21875 1.660156 11.304688 1.652344 10.386719 C 1.65625 9.804688 1.660156 9.21875 1.664062 8.632812 C 1.660156 8.363281 1.660156 8.089844 1.65625 7.808594 C 1.707031 5.941406 2.210938 4.691406 4.539062 3.234375 C 4.847656 3.089844 5.160156 2.945312 5.480469 2.796875 C 5.785156 2.652344 6.089844 2.503906 6.40625 2.351562 C 9.46875 1.246094 12.320312 1.144531 15.914062 1.15625 Z M 10.265625 6.285156 C 9.0625 6.910156 8.84375 7.261719 8.804688 8.152344 C 8.8125 8.394531 8.824219 8.636719 8.832031 8.890625 C 8.859375 9.679688 8.867188 10.21875 8.398438 10.972656 C 7.695312 11.292969 6.976562 11.601562 6.234375 11.898438 C 6.410156 12.554688 6.570312 12.78125 7.539062 13.210938 C 8.738281 13.960938 8.601562 14.5 8.617188 15.472656 C 8.628906 16.761719 8.628906 16.761719 9.625 17.90625 C 10.519531 18.453125 10.519531 18.453125 11.96875 18.453125 C 12.558594 18.417969 12.558594 18.417969 13.160156 18.378906 C 13.160156 18.074219 13.160156 17.769531 13.160156 17.453125 C 12.589844 17.378906 12.015625 17.300781 11.429688 17.222656 C 11.414062 16.953125 11.394531 16.679688 11.378906 16.402344 C 11.351562 16.042969 11.324219 15.683594 11.292969 15.328125 C 11.285156 15.148438 11.273438 14.972656 11.265625 14.789062 C 11.167969 13.71875 10.9375 13.015625 9.699219 12.128906 C 9.90625 12.035156 10.117188 11.941406 10.332031 11.84375 C 11.140625 11.347656 11.175781 11.105469 11.21875 10.457031 C 11.234375 10.269531 11.246094 10.085938 11.265625 9.894531 C 11.273438 9.699219 11.285156 9.507812 11.292969 9.308594 C 11.308594 9.113281 11.324219 8.917969 11.339844 8.714844 C 11.375 8.234375 11.402344 7.75 11.429688 7.269531 C 12 7.191406 12.570312 7.117188 13.160156 7.035156 C 13.160156 6.730469 13.160156 6.425781 13.160156 6.109375 C 11.820312 5.792969 11.53125 5.84375 10.265625 6.285156 Z M 31.332031 6.109375 C 31.332031 6.417969 31.332031 6.722656 31.332031 7.035156 C 31.613281 7.074219 31.894531 7.113281 32.183594 7.15625 C 32.472656 7.269531 32.765625 7.382812 33.0625 7.5 C 33.230469 8.132812 33.304688 8.691406 33.304688 9.324219 C 33.285156 10.863281 33.285156 10.863281 34.792969 12.128906 C 34.359375 12.59375 33.929688 13.054688 33.496094 13.519531 C 33.425781 14.257812 33.367188 14.996094 33.347656 15.738281 C 33.3125 16.203125 33.3125 16.203125 33.0625 16.992188 C 32.179688 17.332031 32.179688 17.332031 31.332031 17.453125 C 31.332031 17.835938 31.332031 18.21875 31.332031 18.609375 C 32.753906 18.542969 33.703125 18.46875 34.871094 18.011719 C 36.21875 17.058594 35.847656 15.980469 35.847656 14.820312 C 36.148438 13.789062 36.816406 13.496094 38.253906 12.824219 C 38.617188 12.234375 38.617188 12.234375 38.253906 11.667969 C 37.898438 11.539062 37.539062 11.414062 37.171875 11.285156 C 36.09375 10.742188 36.09375 10.742188 35.847656 9.871094 C 35.835938 9.542969 35.839844 9.214844 35.847656 8.890625 C 35.914062 7.597656 35.914062 7.597656 34.839844 6.46875 C 33.59375 5.980469 32.765625 5.726562 31.332031 6.109375 Z M 17.351562 8.757812 C 15.480469 10.277344 15.433594 11.742188 15.753906 13.519531 C 16.480469 14.902344 17.921875 15.714844 20.082031 16.527344 C 22.683594 16.992188 25.875 17 28.410156 16.410156 C 28.804688 16.296875 29.195312 16.183594 29.601562 16.066406 C 28.960938 15.492188 28.960938 15.492188 28.304688 14.90625 C 27.648438 15.085938 27.648438 15.085938 26.976562 15.269531 C 25.253906 15.660156 24.070312 15.660156 22.246094 15.371094 C 20.300781 14.582031 19.601562 13.871094 19.21875 12.59375 C 19.222656 9.910156 19.222656 9.910156 20.949219 8.890625 C 22.851562 8.25 24.453125 8.460938 26.574219 8.65625 C 26.910156 8.710938 27.25 8.761719 27.601562 8.816406 C 27.832031 8.839844 28.0625 8.863281 28.304688 8.890625 C 28.589844 8.734375 28.875 8.582031 29.167969 8.425781 C 29.167969 8.195312 29.167969 7.96875 29.167969 7.730469 C 24.972656 6.6875 20.527344 6.96875 17.351562 8.757812 Z M 17.351562 8.757812 "/>
<path style=" stroke:none;fill-rule:nonzero;fill:rgb(11.764706%,29.019609%,92.156863%);fill-opacity:1;" d="M 33.929688 11.667969 C 34.355469 11.820312 34.785156 11.972656 35.226562 12.128906 C 34.792969 12.59375 34.359375 13.054688 33.929688 13.519531 C 33.828125 14.109375 33.746094 14.691406 33.683594 15.285156 C 33.65625 15.527344 33.65625 15.527344 33.628906 15.777344 C 33.582031 16.183594 33.539062 16.585938 33.496094 16.992188 C 32.78125 17.144531 32.066406 17.296875 31.332031 17.453125 C 31.332031 17.835938 31.332031 18.21875 31.332031 18.609375 C 31.902344 18.609375 32.476562 18.609375 33.0625 18.609375 C 33.0625 18.765625 33.0625 18.917969 33.0625 19.074219 C 32.207031 18.996094 31.351562 18.921875 30.46875 18.84375 C 30.46875 18.460938 30.46875 18.078125 30.46875 17.683594 C 29.894531 17.609375 29.324219 17.53125 28.734375 17.453125 C 28.878906 17.222656 29.023438 16.996094 29.167969 16.757812 C 28.71875 16.871094 28.71875 16.871094 28.261719 16.988281 C 26.835938 17.253906 25.703125 17.285156 24.191406 17.28125 C 23.714844 17.28125 23.238281 17.28125 22.746094 17.285156 C 21.394531 17.222656 20.4375 17.066406 19.21875 16.757812 C 19.21875 16.605469 19.21875 16.453125 19.21875 16.296875 C 19.671875 16.351562 19.671875 16.351562 20.136719 16.410156 C 23.285156 16.710938 26.445312 16.804688 29.167969 15.832031 C 28.742188 15.453125 28.3125 15.070312 27.871094 14.675781 C 28.300781 14.597656 28.726562 14.523438 29.167969 14.445312 C 29.167969 14.671875 29.167969 14.902344 29.167969 15.140625 C 29.453125 15.140625 29.738281 15.140625 30.035156 15.140625 C 30.175781 15.671875 30.320312 16.207031 30.46875 16.757812 C 31.179688 16.757812 31.894531 16.757812 32.628906 16.757812 C 32.628906 15.535156 32.628906 14.316406 32.628906 13.054688 C 32.914062 13.054688 33.203125 13.054688 33.496094 13.054688 C 33.488281 12.871094 33.476562 12.683594 33.46875 12.492188 C 33.496094 11.898438 33.496094 11.898438 33.929688 11.667969 Z M 33.929688 11.667969 "/>
<path style=" stroke:none;fill-rule:nonzero;fill:rgb(12.941177%,29.411766%,81.568629%);fill-opacity:1;" d="M 15.957031 1.136719 C 16.421875 1.136719 16.886719 1.132812 17.363281 1.132812 C 18.339844 1.132812 19.316406 1.136719 20.296875 1.140625 C 21.78125 1.148438 23.265625 1.148438 24.75 1.144531 C 25.703125 1.144531 26.65625 1.148438 27.613281 1.148438 C 28.050781 1.148438 28.488281 1.148438 28.941406 1.148438 C 31.738281 1.167969 34.375 1.328125 36.957031 1.945312 C 37.171875 2.171875 37.171875 2.171875 37.390625 2.40625 C 37.109375 2.375 36.832031 2.347656 36.542969 2.3125 C 30.292969 1.6875 23.933594 1.6875 17.59375 1.65625 C 17.074219 1.648438 16.554688 1.644531 16.019531 1.640625 C 13.21875 1.632812 11.335938 1.757812 8.832031 2.40625 C 7.886719 2.3125 7.886719 2.3125 7.101562 2.175781 C 10.089844 1.300781 12.582031 1.113281 15.957031 1.136719 Z M 15.957031 1.136719 "/>
<path style=" stroke:none;fill-rule:nonzero;fill:rgb(17.254902%,31.37255%,83.137256%);fill-opacity:1;" d="M 31.332031 5.648438 C 32.226562 5.75 32.226562 5.75 33.0625 5.878906 C 32.492188 5.957031 31.921875 6.03125 31.332031 6.109375 C 31.332031 6.417969 31.332031 6.722656 31.332031 7.035156 C 32.402344 7.265625 32.402344 7.265625 33.496094 7.5 C 33.636719 8.875 33.78125 10.25 33.929688 11.667969 C 33.5 11.589844 33.070312 11.515625 32.628906 11.433594 C 32.628906 10.519531 32.628906 9.601562 32.628906 8.65625 C 31.917969 8.734375 31.203125 8.808594 30.46875 8.890625 C 31.277344 7.789062 31.277344 7.789062 31.765625 7.269531 C 31.480469 7.269531 31.195312 7.269531 30.898438 7.269531 C 30.882812 6.804688 30.882812 6.34375 30.898438 5.878906 C 31.042969 5.804688 31.183594 5.726562 31.332031 5.648438 Z M 31.332031 5.648438 "/>
<path style=" stroke:none;fill-rule:nonzero;fill:rgb(17.647059%,33.333334%,87.058824%);fill-opacity:1;" d="M 38.253906 11.667969 C 38.398438 11.667969 38.539062 11.667969 38.6875 11.667969 C 38.796875 12.304688 38.796875 12.304688 38.6875 13.054688 C 37.851562 13.578125 37.851562 13.578125 36.957031 13.980469 C 36.242188 14.746094 36.480469 15.601562 36.496094 16.441406 C 36.5 16.71875 36.5 16.71875 36.503906 17.003906 C 36.507812 17.460938 36.515625 17.921875 36.523438 18.378906 C 34.8125 18.496094 34.8125 18.496094 33.0625 18.609375 C 33.414062 18.457031 33.765625 18.300781 34.128906 18.140625 C 35.503906 17.277344 35.472656 16.835938 35.46875 15.71875 C 35.472656 14.136719 35.472656 14.136719 36.480469 13.292969 C 37.390625 12.824219 37.390625 12.824219 38.253906 12.824219 C 38.253906 12.441406 38.253906 12.058594 38.253906 11.667969 Z M 38.253906 11.667969 "/>
<path style=" stroke:none;fill-rule:nonzero;fill:rgb(13.725491%,27.450982%,78.039217%);fill-opacity:1;" d="M 25.273438 8.195312 C 24.703125 8.269531 24.132812 8.347656 23.542969 8.425781 C 23.542969 8.65625 23.542969 8.882812 23.542969 9.121094 C 22.542969 9.195312 21.542969 9.273438 20.515625 9.351562 C 20.230469 10.726562 19.945312 12.101562 19.648438 13.519531 C 18.496094 12.285156 18.71875 11.375 19.21875 10.046875 C 19.988281 9.207031 20.484375 8.796875 22.003906 8.339844 C 23.136719 8.191406 24.109375 8.160156 25.273438 8.195312 Z M 25.273438 8.195312 "/>
<path style=" stroke:none;fill-rule:nonzero;fill:rgb(10.588235%,30.980393%,78.039217%);fill-opacity:1;" d="M 12.726562 5.878906 C 13.011719 5.878906 13.296875 5.878906 13.59375 5.878906 C 13.59375 6.109375 13.59375 6.339844 13.59375 6.574219 C 14.019531 6.652344 14.449219 6.726562 14.890625 6.804688 C 14.746094 6.957031 14.605469 7.109375 14.457031 7.269531 C 13.601562 7.34375 12.742188 7.421875 11.859375 7.5 C 11.859375 8.796875 11.859375 10.097656 11.859375 11.433594 C 11.574219 11.433594 11.289062 11.433594 10.996094 11.433594 C 10.984375 10.871094 10.976562 10.308594 10.96875 9.742188 C 10.964844 9.582031 10.960938 9.421875 10.957031 9.257812 C 10.953125 8.53125 10.996094 7.964844 11.429688 7.269531 C 12.320312 7.109375 12.320312 7.109375 13.160156 7.035156 C 13.015625 6.65625 12.875 6.273438 12.726562 5.878906 Z M 12.726562 5.878906 "/>
<path style=" stroke:none;fill-rule:nonzero;fill:rgb(16.862746%,32.941177%,86.274511%);fill-opacity:1;" d="M 19.21875 16.296875 C 19.671875 16.351562 19.671875 16.351562 20.136719 16.410156 C 21.441406 16.535156 22.652344 16.558594 23.976562 16.558594 C 24.632812 16.558594 24.632812 16.558594 25.300781 16.558594 C 26.492188 16.53125 27.574219 16.441406 28.734375 16.296875 C 28.734375 16.449219 28.734375 16.601562 28.734375 16.757812 C 27.21875 17.257812 25.984375 17.285156 24.21875 17.28125 C 23.738281 17.28125 23.257812 17.28125 22.761719 17.285156 C 21.402344 17.222656 20.441406 17.066406 19.21875 16.757812 C 19.21875 16.605469 19.21875 16.453125 19.21875 16.296875 Z M 19.21875 16.296875 "/>
<path style=" stroke:none;fill-rule:nonzero;fill:rgb(16.862746%,31.764707%,87.843138%);fill-opacity:1;" d="M 29.601562 7.035156 C 30.097656 7.964844 30.050781 8.5 29.167969 9.351562 C 28.742188 9.429688 28.3125 9.503906 27.871094 9.582031 C 27.871094 9.429688 27.871094 9.277344 27.871094 9.121094 C 27.015625 8.96875 26.15625 8.816406 25.273438 8.65625 C 26.628906 8.414062 27 8.441406 28.304688 8.65625 C 28.589844 8.351562 28.875 8.046875 29.167969 7.730469 C 28.453125 7.65625 27.742188 7.578125 27.003906 7.5 C 28.628906 7.035156 28.628906 7.035156 29.601562 7.035156 Z M 29.601562 7.035156 "/>
<path style=" stroke:none;fill-rule:nonzero;fill:rgb(18.431373%,32.156864%,81.176472%);fill-opacity:1;" d="M 33.929688 11.667969 C 34.355469 11.820312 34.785156 11.972656 35.226562 12.128906 C 34.792969 12.59375 34.359375 13.054688 33.929688 13.519531 C 33.828125 14.109375 33.746094 14.691406 33.683594 15.285156 C 33.667969 15.445312 33.648438 15.609375 33.628906 15.777344 C 33.582031 16.183594 33.539062 16.585938 33.496094 16.992188 C 33.351562 16.992188 33.210938 16.992188 33.0625 16.992188 C 32.921875 15.691406 32.777344 14.394531 32.628906 13.054688 C 32.914062 13.054688 33.203125 13.054688 33.496094 13.054688 C 33.480469 12.777344 33.480469 12.777344 33.46875 12.492188 C 33.496094 11.898438 33.496094 11.898438 33.929688 11.667969 Z M 33.929688 11.667969 "/>
<path style=" stroke:none;fill-rule:nonzero;fill:rgb(14.901961%,30.19608%,87.450981%);fill-opacity:1;" d="M 19.648438 7.730469 C 19.382812 7.886719 19.382812 7.886719 19.113281 8.046875 C 17.808594 8.828125 16.769531 9.484375 16.1875 10.507812 C 15.761719 9.800781 15.761719 9.363281 16.1875 8.65625 C 15.757812 8.582031 15.332031 8.503906 14.890625 8.425781 C 16.558594 7.925781 17.726562 7.640625 19.648438 7.730469 Z M 19.648438 7.730469 "/>
<path style=" stroke:none;fill-rule:nonzero;fill:rgb(15.686275%,30.19608%,83.137256%);fill-opacity:1;" d="M 35.226562 6.804688 C 35.511719 6.804688 35.796875 6.804688 36.09375 6.804688 C 36.101562 7.066406 36.113281 7.328125 36.125 7.597656 C 36.148438 7.941406 36.175781 8.285156 36.199219 8.628906 C 36.207031 8.800781 36.210938 8.972656 36.21875 9.152344 C 36.246094 9.714844 36.246094 9.714844 36.523438 10.507812 C 37.347656 10.878906 37.347656 10.878906 38.253906 10.972656 C 38.253906 11.203125 38.253906 11.429688 38.253906 11.667969 C 37.1875 11.398438 36.503906 11.191406 35.660156 10.742188 C 35.527344 10.070312 35.4375 9.417969 35.390625 8.746094 C 35.371094 8.558594 35.355469 8.371094 35.339844 8.183594 C 35.296875 7.722656 35.261719 7.265625 35.226562 6.804688 Z M 35.226562 6.804688 "/>
<path style=" stroke:none;fill-rule:nonzero;fill:rgb(15.294118%,31.764707%,92.941177%);fill-opacity:1;" d="M 31.332031 5.648438 C 32.226562 5.75 32.226562 5.75 33.0625 5.878906 C 32.492188 5.957031 31.921875 6.03125 31.332031 6.109375 C 31.332031 6.417969 31.332031 6.722656 31.332031 7.035156 C 31.617188 7.035156 31.902344 7.035156 32.199219 7.035156 C 32.339844 7.570312 32.484375 8.105469 32.628906 8.65625 C 31.917969 8.734375 31.203125 8.808594 30.46875 8.890625 C 31.277344 7.789062 31.277344 7.789062 31.765625 7.269531 C 31.480469 7.269531 31.195312 7.269531 30.898438 7.269531 C 30.882812 6.804688 30.882812 6.34375 30.898438 5.878906 C 31.042969 5.804688 31.183594 5.726562 31.332031 5.648438 Z M 31.332031 5.648438 "/>
<path style=" stroke:none;fill-rule:nonzero;fill:rgb(20.392157%,36.862746%,89.019608%);fill-opacity:1;" d="M 11.429688 16.757812 C 12.140625 16.835938 12.855469 16.910156 13.59375 16.992188 C 13.59375 17.601562 13.59375 18.214844 13.59375 18.84375 C 12.59375 18.765625 11.59375 18.691406 10.5625 18.609375 C 10.5625 18.535156 10.5625 18.457031 10.5625 18.378906 C 11.417969 18.378906 12.277344 18.378906 13.160156 18.378906 C 13.160156 18.074219 13.160156 17.769531 13.160156 17.453125 C 12.589844 17.378906 12.015625 17.300781 11.429688 17.222656 C 11.429688 17.070312 11.429688 16.917969 11.429688 16.757812 Z M 11.429688 16.757812 "/>
<path style=" stroke:none;fill-rule:nonzero;fill:rgb(16.078432%,29.803923%,84.313726%);fill-opacity:1;" d="M 39.554688 3.332031 C 41.285156 4.140625 41.988281 4.640625 42.148438 5.878906 C 41.863281 5.878906 41.578125 5.878906 41.285156 5.878906 C 41.285156 5.496094 41.285156 5.117188 41.285156 4.722656 C 40.714844 4.570312 40.140625 4.417969 39.554688 4.257812 C 39.554688 3.953125 39.554688 3.648438 39.554688 3.332031 Z M 39.554688 3.332031 "/>
<path style=" stroke:none;fill-rule:nonzero;fill:rgb(12.54902%,28.627452%,82.352942%);fill-opacity:1;" d="M 9.699219 11.898438 C 10.339844 12.128906 10.339844 12.128906 10.996094 12.359375 C 10.996094 12.589844 10.996094 12.820312 10.996094 13.054688 C 11.28125 13.054688 11.566406 13.054688 11.859375 13.054688 C 11.71875 13.4375 11.574219 13.820312 11.429688 14.214844 C 11.3125 14.085938 11.195312 13.957031 11.078125 13.824219 C 10.519531 13.242188 9.902344 12.6875 9.265625 12.128906 C 9.40625 12.054688 9.550781 11.976562 9.699219 11.898438 Z M 9.699219 11.898438 "/>
<path style=" stroke:none;fill-rule:nonzero;fill:rgb(18.82353%,31.764707%,83.92157%);fill-opacity:1;" d="M 6.234375 2.40625 C 6.523438 2.484375 6.808594 2.558594 7.101562 2.640625 C 6.417969 3.371094 6.039062 3.734375 4.640625 4.101562 C 4.308594 4.152344 3.980469 4.207031 3.640625 4.257812 C 4.265625 3.480469 5.082031 2.984375 6.234375 2.40625 Z M 6.234375 2.40625 "/>
<path style=" stroke:none;fill-rule:nonzero;fill:rgb(13.725491%,30.19608%,87.843138%);fill-opacity:1;" d="M 25.273438 8.195312 C 24.703125 8.269531 24.132812 8.347656 23.542969 8.425781 C 23.542969 8.65625 23.542969 8.882812 23.542969 9.121094 C 22.6875 9.195312 21.832031 9.273438 20.949219 9.351562 C 21.300781 8.902344 21.300781 8.902344 21.8125 8.425781 C 23.082031 8.199219 23.957031 8.175781 25.273438 8.195312 Z M 25.273438 8.195312 "/>
<path style=" stroke:none;fill-rule:nonzero;fill:rgb(16.078432%,32.156864%,88.627452%);fill-opacity:1;" d="M 12.726562 5.878906 C 13.011719 5.878906 13.296875 5.878906 13.59375 5.878906 C 13.59375 6.109375 13.59375 6.339844 13.59375 6.574219 C 14.019531 6.652344 14.449219 6.726562 14.890625 6.804688 C 14.746094 6.957031 14.605469 7.109375 14.457031 7.269531 C 13.457031 7.4375 12.445312 7.59375 11.429688 7.730469 C 11.429688 7.578125 11.429688 7.425781 11.429688 7.269531 C 12 7.191406 12.570312 7.117188 13.160156 7.035156 C 13.015625 6.65625 12.875 6.273438 12.726562 5.878906 Z M 12.726562 5.878906 "/>
<path style=" stroke:none;fill-rule:nonzero;fill:rgb(16.470589%,29.411766%,84.313726%);fill-opacity:1;" d="M 10.996094 1.25 C 11.136719 1.480469 11.28125 1.707031 11.429688 1.945312 C 9.652344 2.3125 9.007812 2.429688 7.101562 2.175781 C 8.386719 1.871094 9.671875 1.566406 10.996094 1.25 Z M 10.996094 1.25 "/>
<path style=" stroke:none;fill-rule:nonzero;fill:rgb(14.509805%,31.764707%,87.058824%);fill-opacity:1;" d="M 28.304688 14.445312 C 28.589844 14.445312 28.875 14.445312 29.167969 14.445312 C 29.167969 14.671875 29.167969 14.902344 29.167969 15.140625 C 29.453125 15.140625 29.738281 15.140625 30.035156 15.140625 C 30.035156 15.519531 30.035156 15.902344 30.035156 16.296875 C 29.605469 16.21875 29.175781 16.144531 28.734375 16.066406 C 28.734375 15.835938 28.734375 15.605469 28.734375 15.371094 C 28.449219 15.140625 28.164062 14.910156 27.871094 14.675781 C 28.011719 14.597656 28.15625 14.523438 28.304688 14.445312 Z M 28.304688 14.445312 "/>
</g>
</svg>
