<?xml version="1.0" encoding="UTF-8"?>
<svg xmlns="http://www.w3.org/2000/svg" xmlns:xlink="http://www.w3.org/1999/xlink" width="139px" height="43px" viewBox="0 0 139 43" version="1.1">
<g id="surface1">
<path style=" stroke:none;fill-rule:nonzero;fill:rgb(9.411765%,28.235295%,97.254902%);fill-opacity:1;" d="M 13.554688 2.335938 C 13.945312 2.332031 14.335938 2.328125 14.742188 2.328125 C 15.570312 2.324219 16.398438 2.320312 17.226562 2.320312 C 18.484375 2.320312 19.742188 2.304688 21 2.289062 C 21.808594 2.289062 22.613281 2.285156 23.421875 2.285156 C 23.792969 2.277344 24.164062 2.273438 24.550781 2.269531 C 27.425781 2.289062 29.691406 3.023438 32.136719 4.757812 C 34.960938 8.070312 35.453125 11.585938 35.449219 16.039062 C 35.449219 16.460938 35.453125 16.882812 35.453125 17.3125 C 35.457031 18.199219 35.457031 19.085938 35.453125 19.972656 C 35.453125 21.324219 35.460938 22.671875 35.46875 24.019531 C 35.472656 24.886719 35.472656 25.75 35.46875 26.617188 C 35.472656 27.015625 35.476562 27.414062 35.480469 27.828125 C 35.457031 31.757812 34.648438 35.039062 32.199219 37.902344 C 30.253906 39.625 28.625 40.335938 26.164062 40.355469 C 25.796875 40.359375 25.425781 40.363281 25.046875 40.367188 C 24.652344 40.371094 24.253906 40.371094 23.847656 40.375 C 23.4375 40.375 23.027344 40.378906 22.601562 40.378906 C 21.734375 40.382812 20.867188 40.386719 20 40.386719 C 18.675781 40.390625 17.355469 40.40625 16.03125 40.417969 C 15.1875 40.417969 14.34375 40.421875 13.5 40.421875 C 13.105469 40.429688 12.710938 40.433594 12.304688 40.4375 C 9.238281 40.429688 6.796875 39.878906 4.472656 37.457031 C 2.710938 35.109375 1.785156 32.25 1.753906 29.191406 C 1.75 28.804688 1.746094 28.417969 1.742188 28.023438 C 1.738281 27.605469 1.734375 27.191406 1.734375 26.765625 C 1.730469 26.335938 1.726562 25.90625 1.722656 25.460938 C 1.71875 24.550781 1.714844 23.640625 1.714844 22.726562 C 1.707031 21.800781 1.703125 20.875 1.691406 19.945312 C 1.675781 18.601562 1.671875 17.257812 1.667969 15.914062 C 1.660156 15.503906 1.65625 15.09375 1.648438 14.671875 C 1.65625 11.4375 2.324219 8.875 3.824219 6.125 C 6.683594 2.957031 9.6875 2.34375 13.554688 2.335938 Z M 8.570312 11.328125 C 8.011719 12.160156 7.953125 12.617188 7.910156 13.652344 C 7.886719 13.964844 7.867188 14.277344 7.847656 14.597656 C 7.8125 15.253906 7.78125 15.90625 7.753906 16.5625 C 7.589844 18.976562 7.589844 18.976562 6.507812 20.210938 C 6.226562 20.402344 5.945312 20.589844 5.65625 20.785156 C 5.847656 22.3125 6.453125 22.917969 7.402344 23.96875 C 7.925781 25.753906 7.871094 27.570312 7.9375 29.441406 C 8.011719 30.710938 8.011719 30.710938 8.570312 31.503906 C 9.445312 32.148438 10.230469 32.007812 11.246094 31.929688 C 11.246094 31.40625 11.246094 30.878906 11.246094 30.339844 C 10.898438 30.207031 10.554688 30.074219 10.199219 29.941406 C 9.539062 28.433594 9.722656 26.578125 9.664062 24.917969 C 9.496094 23.539062 9.273438 22.972656 8.453125 21.976562 C 8.800781 21.179688 9.148438 20.386719 9.5 19.589844 C 9.570312 18.59375 9.628906 17.601562 9.675781 16.601562 C 9.800781 13.722656 9.800781 13.722656 10.199219 12.820312 C 10.542969 12.6875 10.890625 12.558594 11.246094 12.421875 C 11.246094 11.898438 11.246094 11.371094 11.246094 10.828125 C 9.816406 10.667969 9.816406 10.667969 8.570312 11.328125 Z M 26.261719 10.828125 C 26.148438 11.222656 26.03125 11.617188 25.914062 12.023438 C 26.140625 12.160156 26.367188 12.296875 26.601562 12.4375 C 27.3125 13.21875 27.3125 13.21875 27.488281 14.570312 C 27.492188 15.09375 27.5 15.617188 27.507812 16.15625 C 27.539062 18.269531 27.699219 19.417969 28.707031 21.179688 C 28.445312 22.25 28.445312 22.25 28.007812 23.171875 C 27.34375 24.691406 27.554688 26.597656 27.511719 28.273438 C 27.3125 29.542969 27.3125 29.542969 26.597656 30.113281 C 26.371094 30.1875 26.144531 30.261719 25.914062 30.339844 C 26.03125 30.996094 26.144531 31.652344 26.261719 32.328125 C 28.09375 31.773438 28.09375 31.773438 29.40625 30.339844 C 29.515625 28.996094 29.542969 27.695312 29.53125 26.351562 C 29.5625 24.71875 29.679688 24.070312 30.640625 22.824219 C 30.925781 22.546875 31.210938 22.265625 31.503906 21.976562 C 31.589844 21.09375 31.589844 21.09375 31.152344 20.386719 C 30.695312 20.105469 30.230469 19.835938 29.753906 19.589844 C 29.746094 19.125 29.738281 18.65625 29.726562 18.179688 C 29.707031 17.5625 29.6875 16.945312 29.667969 16.328125 C 29.664062 16.023438 29.660156 15.714844 29.652344 15.402344 C 29.578125 13.410156 29.351562 12.25 28.007812 10.828125 C 27.078125 10.664062 27.078125 10.664062 26.261719 10.828125 Z M 14.628906 15.382812 C 13.121094 17.996094 13.082031 20.511719 13.339844 23.570312 C 13.925781 25.949219 15.089844 27.351562 16.832031 28.746094 C 18.667969 29.441406 20.957031 29.546875 22.8125 28.875 C 23.433594 28.53125 23.433594 28.53125 24.167969 27.949219 C 24.050781 27.425781 23.9375 26.898438 23.820312 26.355469 C 22.785156 26.269531 22.785156 26.269531 22.007812 26.78125 C 20.667969 27.289062 19.574219 27.246094 18.230469 26.753906 C 16.902344 25.398438 16.445312 23.957031 16.136719 21.976562 C 16.136719 19.710938 16.140625 17.363281 17.53125 15.605469 C 19.273438 14.359375 21.03125 14.941406 22.945312 15.433594 C 23.117188 15.492188 23.292969 15.546875 23.46875 15.605469 C 23.699219 15.082031 23.929688 14.554688 24.167969 14.015625 C 22.984375 12.664062 21.664062 12.742188 20.042969 12.695312 C 17.597656 12.722656 16.335938 13.332031 14.628906 15.382812 Z M 14.628906 15.382812 "/>
<path style=" stroke:none;fill-rule:nonzero;fill:rgb(15.294118%,15.294118%,15.294118%);fill-opacity:1;" d="M 62.585938 14.8125 C 69.441406 14.8125 69.441406 14.8125 71.316406 16.402344 C 72.339844 17.8125 72.875 18.964844 73.0625 20.785156 C 73.539062 20.332031 73.539062 20.332031 73.445312 19.128906 C 73.441406 18.613281 73.4375 18.101562 73.433594 17.574219 C 73.425781 16.660156 73.417969 15.75 73.410156 14.8125 C 75.945312 14.8125 78.484375 14.8125 81.09375 14.8125 C 81.09375 15.597656 81.09375 16.386719 81.09375 17.199219 C 79.480469 17.199219 77.867188 17.199219 76.207031 17.199219 C 76.207031 18.25 76.207031 19.300781 76.207031 20.386719 C 77.359375 20.386719 78.511719 20.386719 79.699219 20.386719 C 79.699219 21.171875 79.699219 21.960938 79.699219 22.773438 C 78.546875 22.773438 77.394531 22.773438 76.207031 22.773438 C 76.207031 23.957031 76.207031 25.140625 76.207031 26.355469 C 77.820312 26.355469 79.433594 26.355469 81.09375 26.355469 C 81.09375 27.015625 81.09375 27.671875 81.09375 28.347656 C 80.746094 28.746094 80.746094 28.746094 80.066406 28.792969 C 79.773438 28.789062 79.484375 28.789062 79.183594 28.785156 C 78.871094 28.785156 78.554688 28.78125 78.230469 28.78125 C 77.738281 28.777344 77.738281 28.777344 77.230469 28.769531 C 76.898438 28.769531 76.566406 28.769531 76.226562 28.765625 C 75.40625 28.761719 74.582031 28.753906 73.761719 28.746094 C 73.589844 26.777344 73.589844 26.777344 73.410156 24.765625 C 73.222656 24.957031 73.03125 25.148438 72.835938 25.347656 C 72.585938 25.597656 72.335938 25.847656 72.078125 26.109375 C 71.832031 26.359375 71.585938 26.609375 71.332031 26.863281 C 68.714844 29.386719 66.484375 28.746094 62.933594 28.746094 C 62.761719 21.847656 62.761719 21.847656 62.585938 14.8125 Z M 65.378906 17.199219 C 65.378906 20.222656 65.378906 23.242188 65.378906 26.355469 C 67.789062 26.46875 67.789062 26.46875 69.570312 25.164062 C 70.371094 23.597656 70.40625 22.167969 70.269531 20.386719 C 69.71875 18.800781 69.425781 18.152344 68.171875 17.199219 C 67.25 17.199219 66.328125 17.199219 65.378906 17.199219 Z M 72.714844 22.773438 C 73.0625 23.570312 73.0625 23.570312 73.0625 23.570312 Z M 72.714844 22.773438 "/>
<path style=" stroke:none;fill-rule:nonzero;fill:rgb(15.294118%,15.294118%,15.294118%);fill-opacity:1;" d="M 110.78125 14.8125 C 111.703125 14.8125 112.625 14.8125 113.574219 14.8125 C 113.574219 18.621094 113.574219 22.433594 113.574219 26.355469 C 115.074219 26.355469 116.570312 26.355469 118.113281 26.355469 C 119.484375 22.546875 120.71875 18.679688 121.957031 14.8125 C 122.648438 14.8125 123.339844 14.8125 124.050781 14.8125 C 125.523438 19.296875 126.945312 23.792969 128.242188 28.347656 C 127.894531 28.746094 127.894531 28.746094 126.890625 28.894531 C 125.796875 28.746094 125.796875 28.746094 125.164062 27.875 C 124.777344 26.824219 124.542969 25.890625 124.402344 24.765625 C 123.363281 24.765625 122.328125 24.765625 121.257812 24.765625 C 121.1875 25.019531 121.113281 25.273438 121.042969 25.535156 C 120.949219 25.863281 120.851562 26.191406 120.757812 26.53125 C 120.664062 26.859375 120.570312 27.1875 120.472656 27.527344 C 120.210938 28.347656 120.210938 28.347656 119.859375 28.746094 C 119.21875 28.785156 118.574219 28.796875 117.929688 28.800781 C 117.539062 28.800781 117.148438 28.800781 116.742188 28.800781 C 116.332031 28.800781 115.921875 28.796875 115.496094 28.796875 C 114.878906 28.796875 114.878906 28.796875 114.246094 28.800781 C 113.660156 28.800781 113.660156 28.800781 113.0625 28.800781 C 112.699219 28.796875 112.339844 28.796875 111.964844 28.796875 C 111.128906 28.746094 111.128906 28.746094 110.78125 28.347656 C 110.75 27.34375 110.742188 26.351562 110.746094 25.347656 C 110.746094 25.046875 110.746094 24.75 110.75 24.4375 C 110.75 23.476562 110.753906 22.515625 110.757812 21.554688 C 110.761719 20.90625 110.761719 20.253906 110.765625 19.605469 C 110.769531 18.007812 110.773438 16.410156 110.78125 14.8125 Z M 122.65625 19.191406 C 123.003906 19.988281 123.003906 19.988281 123.003906 19.988281 Z M 123.003906 20.785156 C 123.003906 21.308594 123.003906 21.835938 123.003906 22.375 C 123.234375 22.246094 123.464844 22.113281 123.703125 21.976562 C 123.472656 21.582031 123.242188 21.1875 123.003906 20.785156 Z M 123.003906 20.785156 "/>
<path style=" stroke:none;fill-rule:nonzero;fill:rgb(15.294118%,15.294118%,15.294118%);fill-opacity:1;" d="M 131.125 14.738281 C 131.476562 14.730469 131.476562 14.730469 131.832031 14.722656 C 133.539062 14.714844 134.785156 15.015625 136.210938 16.082031 C 136.894531 17.269531 136.769531 18.207031 136.625 19.589844 C 135.925781 20.757812 135.925781 20.757812 135.226562 21.578125 C 135.445312 21.652344 135.660156 21.726562 135.882812 21.804688 C 136.625 22.375 136.625 22.375 137.128906 23.667969 C 137.359375 25.4375 137.140625 26.089844 136.277344 27.550781 C 134.144531 29.171875 131.429688 28.894531 128.941406 28.746094 C 128.261719 27.972656 128.496094 26.511719 128.46875 25.449219 C 128.460938 25.160156 128.453125 24.867188 128.445312 24.570312 C 128.429688 23.957031 128.414062 23.339844 128.398438 22.726562 C 128.375 21.78125 128.347656 20.839844 128.320312 19.894531 C 128.304688 19.300781 128.289062 18.703125 128.273438 18.109375 C 128.265625 17.824219 128.257812 17.539062 128.246094 17.246094 C 128.234375 16.566406 128.234375 15.886719 128.242188 15.210938 C 128.925781 14.429688 130.195312 14.738281 131.125 14.738281 Z M 131.039062 17.199219 C 131.039062 18.121094 131.039062 19.039062 131.039062 19.988281 C 131.851562 20.003906 132.667969 20.003906 133.480469 19.988281 C 133.929688 19.566406 133.929688 19.566406 133.875 18.59375 C 133.929688 17.621094 133.929688 17.621094 133.480469 17.199219 C 132.667969 17.183594 131.851562 17.183594 131.039062 17.199219 Z M 131.039062 22.375 C 131.039062 23.691406 131.039062 25.003906 131.039062 26.355469 C 132.679688 26.511719 132.679688 26.511719 134.179688 25.882812 C 134.609375 25.152344 134.609375 25.152344 134.484375 24.144531 C 134.234375 23.042969 134.234375 23.042969 133.132812 22.375 C 132.042969 22.308594 132.042969 22.308594 131.039062 22.375 Z M 131.039062 22.375 "/>
<path style=" stroke:none;fill-rule:nonzero;fill:rgb(15.294118%,15.294118%,15.294118%);fill-opacity:1;" d="M 59.59375 15.457031 C 61.28125 17.242188 62.109375 18.824219 62.269531 21.433594 C 62.175781 23.917969 61.363281 26.210938 59.789062 27.949219 C 58.214844 29.058594 56.34375 28.996094 54.550781 28.746094 C 53.007812 28.21875 52.070312 27.308594 51.257812 25.734375 C 50.398438 23.460938 50.3125 21 50.976562 18.644531 C 51.585938 17.144531 52.203125 16.023438 53.503906 15.210938 C 55.53125 14.4375 57.660156 14.414062 59.59375 15.457031 Z M 54.203125 17.996094 C 53.171875 19.828125 53.320312 21.871094 53.503906 23.96875 C 53.914062 24.984375 54.226562 25.585938 54.902344 26.355469 C 55.925781 26.472656 56.699219 26.558594 57.695312 26.355469 C 58.957031 24.992188 59.398438 23.824219 59.527344 21.851562 C 59.433594 20.230469 59.175781 19.351562 58.394531 17.996094 C 56.648438 16.539062 55.957031 16.59375 54.203125 17.996094 Z M 54.203125 17.996094 "/>
<path style=" stroke:none;fill-rule:nonzero;fill:rgb(15.294118%,15.294118%,15.294118%);fill-opacity:1;" d="M 98.558594 14.8125 C 99.78125 15.53125 99.78125 15.53125 100.652344 16.402344 C 100.957031 16.675781 100.957031 16.675781 101.265625 16.949219 C 102.457031 18.71875 102.464844 20.625 102.390625 22.753906 C 102.363281 23.652344 102.363281 23.652344 102.75 24.765625 C 102.402344 24.765625 102.058594 24.765625 101.699219 24.765625 C 101.621094 25.058594 101.542969 25.355469 101.460938 25.660156 C 100.910156 26.976562 100.304688 27.53125 99.253906 28.347656 C 97.433594 29.039062 95.707031 29.023438 93.90625 28.25 C 92.171875 26.960938 91.335938 25.90625 90.875 23.570312 C 90.65625 21.167969 90.871094 19.351562 91.921875 17.199219 C 93.863281 14.652344 95.707031 14.46875 98.558594 14.8125 Z M 94.367188 17.996094 C 93.398438 19.753906 93.480469 21.558594 93.667969 23.570312 C 94.203125 25.304688 94.203125 25.304688 95.414062 26.355469 C 97.179688 26.558594 97.179688 26.558594 98.6875 25.636719 C 99.820312 23.898438 99.777344 22.066406 99.605469 19.988281 C 99.175781 18.636719 98.902344 17.867188 97.859375 17.050781 C 96.363281 16.519531 95.585938 16.996094 94.367188 17.996094 Z M 94.367188 17.996094 "/>
<path style=" stroke:none;fill-rule:nonzero;fill:rgb(15.294118%,15.294118%,15.294118%);fill-opacity:1;" d="M 88.496094 14.761719 C 88.945312 14.871094 88.945312 14.871094 89.40625 14.980469 C 90.175781 15.210938 90.175781 15.210938 90.875 15.605469 C 90.785156 16.355469 90.785156 16.355469 90.523438 17.199219 C 89.890625 17.746094 89.890625 17.746094 89.128906 17.996094 C 88.429688 17.597656 88.429688 17.597656 87.730469 17.199219 C 86.554688 17.253906 85.890625 17.339844 85.003906 18.246094 C 84.132812 20.222656 84.125 21.84375 84.695312 23.917969 C 85.046875 25.222656 85.046875 25.222656 85.984375 25.960938 C 88.191406 26.125 88.191406 26.125 90.175781 25.164062 C 90.875 26.355469 90.875 26.355469 90.851562 27.179688 C 90.523438 27.949219 90.523438 27.949219 89.847656 28.449219 C 87.878906 28.996094 86.027344 29.042969 84.105469 28.273438 C 82.753906 27.207031 81.964844 26.148438 81.445312 24.367188 C 81.222656 21.316406 81.109375 18.84375 82.839844 16.402344 C 84.699219 14.691406 86.167969 14.175781 88.496094 14.761719 Z M 88.496094 14.761719 "/>
<path style=" stroke:none;fill-rule:nonzero;fill:rgb(15.294118%,15.294118%,15.294118%);fill-opacity:1;" d="M 48.332031 14.6875 C 48.632812 14.746094 48.933594 14.804688 49.242188 14.867188 C 50.011719 15.210938 50.011719 15.210938 50.464844 16.039062 C 50.546875 16.289062 50.628906 16.542969 50.710938 16.800781 C 50.363281 17.195312 50.019531 17.589844 49.664062 17.996094 C 49.375 17.855469 49.085938 17.71875 48.789062 17.574219 C 47.277344 17.109375 46.308594 17.296875 44.773438 17.597656 C 43.921875 20.285156 43.972656 22.484375 44.796875 25.1875 C 45.476562 26.125 45.476562 26.125 46.847656 26.132812 C 47.929688 26.058594 48.746094 25.859375 49.664062 25.164062 C 50.207031 25.882812 50.207031 25.882812 50.710938 26.753906 C 50.359375 27.949219 50.359375 27.949219 49.683594 28.421875 C 47.722656 29.015625 45.863281 29.042969 43.945312 28.273438 C 42.53125 27.160156 41.824219 26.101562 41.171875 24.292969 C 40.78125 21.820312 40.878906 19.710938 41.871094 17.449219 C 43.722656 15.050781 45.578125 14.09375 48.332031 14.6875 Z M 48.332031 14.6875 "/>
<path style=" stroke:none;fill-rule:nonzero;fill:rgb(15.686275%,15.686275%,15.686275%);fill-opacity:1;" d="M 103.097656 14.8125 C 103.902344 14.8125 104.710938 14.8125 105.542969 14.8125 C 105.542969 18.621094 105.542969 22.433594 105.542969 26.355469 C 107.039062 26.355469 108.539062 26.355469 110.082031 26.355469 C 110.082031 27.015625 110.082031 27.671875 110.082031 28.347656 C 109.550781 28.953125 109.074219 28.796875 108.335938 28.800781 C 108.054688 28.800781 107.773438 28.800781 107.484375 28.800781 C 107.191406 28.800781 106.894531 28.796875 106.589844 28.796875 C 106.292969 28.796875 106 28.800781 105.695312 28.800781 C 105.414062 28.800781 105.132812 28.800781 104.84375 28.800781 C 104.585938 28.796875 104.324219 28.796875 104.058594 28.796875 C 103.445312 28.746094 103.445312 28.746094 103.097656 28.347656 C 103.039062 27.378906 103 26.417969 102.976562 25.449219 C 102.964844 25.160156 102.957031 24.867188 102.949219 24.570312 C 102.933594 23.957031 102.917969 23.339844 102.902344 22.726562 C 102.878906 21.78125 102.851562 20.839844 102.824219 19.894531 C 102.808594 19.300781 102.792969 18.703125 102.777344 18.109375 C 102.769531 17.824219 102.761719 17.539062 102.753906 17.246094 C 102.738281 16.566406 102.742188 15.886719 102.75 15.210938 C 102.863281 15.078125 102.980469 14.945312 103.097656 14.8125 Z M 103.097656 14.8125 "/>
<path style=" stroke:none;fill-rule:nonzero;fill:rgb(12.156863%,30.19608%,89.803922%);fill-opacity:1;" d="M 25.914062 10.035156 C 27.070312 10.109375 27.070312 10.109375 28.007812 10.429688 C 28.007812 10.5625 28.007812 10.695312 28.007812 10.828125 C 27.433594 10.828125 26.855469 10.828125 26.261719 10.828125 C 26.261719 11.222656 26.261719 11.617188 26.261719 12.023438 C 26.492188 12.183594 26.722656 12.339844 26.957031 12.503906 C 27.660156 13.21875 27.660156 13.21875 27.796875 14.640625 C 27.789062 15.1875 27.769531 15.734375 27.746094 16.277344 C 27.742188 16.558594 27.734375 16.839844 27.726562 17.125 C 27.710938 17.816406 27.6875 18.503906 27.660156 19.191406 C 27.429688 19.191406 27.199219 19.191406 26.960938 19.191406 C 26.789062 17.21875 26.789062 17.21875 26.613281 15.210938 C 26.496094 15.339844 26.382812 15.472656 26.261719 15.605469 C 25.902344 15.664062 25.542969 15.722656 25.171875 15.78125 C 23.855469 16 22.648438 16.382812 21.375 16.800781 C 21.027344 16.800781 20.683594 16.800781 20.324219 16.800781 C 20.238281 16.546875 20.152344 16.292969 20.0625 16.03125 C 19.691406 15.132812 19.691406 15.132812 18.886719 14.910156 C 18.667969 14.878906 18.453125 14.84375 18.230469 14.8125 C 20.253906 14.40625 21.535156 14.429688 23.46875 15.210938 C 23.46875 14.683594 23.46875 14.15625 23.46875 13.617188 C 22.289062 13.210938 21.207031 13.164062 19.976562 13.167969 C 19.617188 13.167969 19.257812 13.167969 18.886719 13.164062 C 18.023438 13.210938 17.308594 13.332031 16.484375 13.617188 C 16.601562 13.089844 16.714844 12.566406 16.832031 12.023438 C 17.152344 12.039062 17.152344 12.039062 17.480469 12.054688 C 18.449219 12.097656 19.421875 12.121094 20.390625 12.148438 C 20.894531 12.171875 20.894531 12.171875 21.40625 12.199219 C 23.488281 12.269531 23.488281 12.269531 25.203125 11.015625 C 25.4375 10.691406 25.671875 10.367188 25.914062 10.035156 Z M 25.914062 10.035156 "/>
<path style=" stroke:none;fill-rule:nonzero;fill:rgb(13.333334%,13.333334%,13.333334%);fill-opacity:1;" d="M 75.507812 24.367188 C 75.621094 24.761719 75.738281 25.15625 75.855469 25.5625 C 75.972656 25.824219 76.085938 26.085938 76.207031 26.355469 C 77.820312 26.355469 79.433594 26.355469 81.09375 26.355469 C 81.09375 27.015625 81.09375 27.671875 81.09375 28.347656 C 80.746094 28.746094 80.746094 28.746094 80.066406 28.792969 C 79.773438 28.789062 79.484375 28.789062 79.183594 28.785156 C 78.871094 28.785156 78.554688 28.78125 78.230469 28.78125 C 77.902344 28.777344 77.570312 28.773438 77.230469 28.769531 C 76.898438 28.769531 76.566406 28.769531 76.226562 28.765625 C 75.40625 28.761719 74.582031 28.753906 73.761719 28.746094 C 73.761719 27.433594 73.761719 26.117188 73.761719 24.765625 C 74.460938 24.367188 74.460938 24.367188 75.507812 24.367188 Z M 75.507812 24.367188 "/>
<path style=" stroke:none;fill-rule:nonzero;fill:rgb(16.078432%,30.19608%,81.568629%);fill-opacity:1;" d="M 6.007812 38.300781 C 8.40625 38.648438 8.40625 38.648438 8.800781 39.097656 C 9.421875 39.148438 10.046875 39.167969 10.667969 39.179688 C 11.066406 39.1875 11.464844 39.195312 11.875 39.203125 C 12.527344 39.214844 12.527344 39.214844 13.191406 39.222656 C 13.632812 39.230469 14.074219 39.242188 14.527344 39.25 C 15.703125 39.269531 16.878906 39.289062 18.054688 39.308594 C 19.25 39.328125 20.449219 39.351562 21.648438 39.375 C 24 39.417969 26.355469 39.457031 28.707031 39.496094 C 28.707031 39.234375 28.707031 38.972656 28.707031 38.699219 C 29.285156 38.699219 29.859375 38.699219 30.453125 38.699219 C 29.675781 39.71875 29.164062 40.046875 28.007812 40.292969 C 27.394531 40.332031 26.78125 40.351562 26.164062 40.355469 C 25.796875 40.359375 25.425781 40.363281 25.046875 40.367188 C 24.652344 40.371094 24.253906 40.371094 23.847656 40.375 C 23.4375 40.375 23.027344 40.378906 22.601562 40.378906 C 21.734375 40.382812 20.867188 40.386719 20 40.386719 C 18.675781 40.390625 17.355469 40.40625 16.03125 40.417969 C 15.1875 40.417969 14.34375 40.421875 13.5 40.421875 C 13.105469 40.429688 12.710938 40.433594 12.304688 40.4375 C 10.078125 40.429688 8.371094 40.21875 6.355469 39.097656 C 6.242188 38.835938 6.125 38.574219 6.007812 38.300781 Z M 6.007812 38.300781 "/>
<path style=" stroke:none;fill-rule:nonzero;fill:rgb(15.294118%,26.666668%,78.823531%);fill-opacity:1;" d="M 33.945312 8.042969 C 35.523438 9.839844 35.429688 12.425781 35.449219 14.824219 C 35.449219 15.226562 35.449219 15.625 35.449219 16.039062 C 35.449219 16.460938 35.453125 16.882812 35.453125 17.3125 C 35.457031 18.199219 35.457031 19.085938 35.453125 19.972656 C 35.453125 21.324219 35.460938 22.671875 35.46875 24.019531 C 35.472656 24.886719 35.472656 25.75 35.46875 26.617188 C 35.472656 27.015625 35.476562 27.414062 35.480469 27.828125 C 35.464844 30.449219 35.371094 33.382812 33.734375 35.414062 C 33.496094 35.660156 33.496094 35.660156 33.25 35.914062 C 33.132812 35.386719 33.019531 34.863281 32.898438 34.320312 C 33.246094 34.320312 33.589844 34.320312 33.945312 34.320312 C 33.945312 33.53125 33.945312 32.742188 33.945312 31.929688 C 34.175781 31.929688 34.40625 31.929688 34.644531 31.929688 C 34.605469 28.914062 34.558594 25.894531 34.515625 22.875 C 34.5 21.851562 34.484375 20.824219 34.472656 19.796875 C 34.453125 18.320312 34.429688 16.84375 34.40625 15.367188 C 34.402344 14.910156 34.394531 14.453125 34.390625 13.980469 C 34.382812 13.550781 34.375 13.121094 34.367188 12.675781 C 34.363281 12.300781 34.355469 11.921875 34.351562 11.535156 C 34.292969 10.347656 34.136719 9.210938 33.945312 8.042969 Z M 33.945312 8.042969 "/>
<path style=" stroke:none;fill-rule:nonzero;fill:rgb(15.686275%,31.37255%,83.92157%);fill-opacity:1;" d="M 8.800781 22.375 C 9.261719 22.375 9.722656 22.375 10.199219 22.375 C 10.3125 24.742188 10.429688 27.105469 10.546875 29.542969 C 10.894531 29.675781 11.238281 29.804688 11.59375 29.941406 C 11.59375 30.859375 11.59375 31.78125 11.59375 32.726562 C 11.25 32.726562 10.902344 32.726562 10.546875 32.726562 C 10.546875 32.464844 10.546875 32.203125 10.546875 31.929688 C 10.777344 31.929688 11.007812 31.929688 11.246094 31.929688 C 11.246094 31.40625 11.246094 30.878906 11.246094 30.339844 C 11.023438 30.289062 10.800781 30.242188 10.570312 30.191406 C 10.210938 30.066406 10.210938 30.066406 9.847656 29.941406 C 9.339844 28.78125 9.390625 27.675781 9.324219 26.382812 C 9.226562 24.34375 9.226562 24.34375 8.800781 22.375 Z M 8.800781 22.375 "/>
<path style=" stroke:none;fill-rule:nonzero;fill:rgb(14.901961%,31.37255%,80.784315%);fill-opacity:1;" d="M 28.359375 20.785156 C 28.589844 20.914062 28.820312 21.046875 29.058594 21.179688 C 28.402344 23.074219 28.402344 23.074219 28.007812 23.96875 C 27.914062 25.402344 27.851562 26.835938 27.792969 28.273438 C 27.660156 29.542969 27.660156 29.542969 26.960938 30.339844 C 26.617188 30.207031 26.269531 30.074219 25.914062 29.941406 C 26.261719 29.808594 26.605469 29.679688 26.960938 29.542969 C 26.953125 29.167969 26.945312 28.792969 26.9375 28.40625 C 26.929688 27.910156 26.925781 27.414062 26.917969 26.90625 C 26.910156 26.414062 26.902344 25.925781 26.894531 25.421875 C 26.960938 23.992188 27.207031 22.90625 27.660156 21.578125 C 27.890625 21.578125 28.121094 21.578125 28.359375 21.578125 C 28.359375 21.316406 28.359375 21.054688 28.359375 20.785156 Z M 28.359375 20.785156 "/>
<path style=" stroke:none;fill-rule:nonzero;fill:rgb(14.117648%,29.803923%,88.627452%);fill-opacity:1;" d="M 6.007812 4.0625 C 6.238281 4.191406 6.46875 4.324219 6.707031 4.460938 C 6.476562 4.722656 6.246094 4.984375 6.007812 5.253906 C 5.964844 5.511719 5.921875 5.765625 5.875 6.027344 C 5.582031 7.132812 5.113281 7.453125 4.261719 8.042969 C 4.03125 8.042969 3.800781 8.042969 3.5625 8.042969 C 3.445312 8.960938 3.332031 9.882812 3.214844 10.828125 C 2.867188 10.960938 2.523438 11.09375 2.164062 11.226562 C 2.273438 8.816406 3.308594 7.082031 4.609375 5.253906 C 5.378906 4.550781 5.378906 4.550781 6.007812 4.0625 Z M 6.007812 4.0625 "/>
<path style=" stroke:none;fill-rule:nonzero;fill:rgb(15.294118%,28.627452%,82.745099%);fill-opacity:1;" d="M 13.691406 16.402344 C 13.804688 16.667969 13.921875 16.929688 14.039062 17.199219 C 13.925781 17.59375 13.808594 17.988281 13.691406 18.394531 C 13.394531 22.457031 13.839844 25.210938 16.136719 28.347656 C 15.675781 28.214844 15.214844 28.085938 14.738281 27.949219 C 14.738281 27.6875 14.738281 27.425781 14.738281 27.152344 C 14.507812 27.152344 14.277344 27.152344 14.039062 27.152344 C 13.320312 26.433594 13.023438 25.828125 12.898438 24.746094 C 12.863281 23.753906 12.867188 22.769531 12.882812 21.777344 C 12.882812 21.4375 12.878906 21.097656 12.878906 20.746094 C 12.890625 19.050781 12.941406 17.902344 13.691406 16.402344 Z M 13.691406 16.402344 "/>
<path style=" stroke:none;fill-rule:nonzero;fill:rgb(8.627451%,8.627451%,8.627451%);fill-opacity:1;" d="M 109.035156 26.355469 C 109.378906 26.355469 109.726562 26.355469 110.082031 26.355469 C 110.097656 27.019531 110.097656 27.683594 110.082031 28.347656 C 109.734375 28.746094 109.734375 28.746094 109.117188 28.792969 C 108.855469 28.789062 108.59375 28.789062 108.324219 28.785156 C 108.042969 28.785156 107.757812 28.78125 107.46875 28.78125 C 107.171875 28.777344 106.875 28.773438 106.566406 28.769531 C 106.269531 28.769531 105.972656 28.769531 105.664062 28.765625 C 104.925781 28.761719 104.1875 28.753906 103.445312 28.746094 C 103.445312 28.613281 103.445312 28.484375 103.445312 28.347656 C 103.875 28.332031 103.875 28.332031 104.3125 28.316406 C 104.878906 28.28125 104.878906 28.28125 105.453125 28.25 C 105.828125 28.230469 106.199219 28.210938 106.585938 28.191406 C 107.835938 27.90625 108.191406 27.402344 109.035156 26.355469 Z M 109.035156 26.355469 "/>
<path style=" stroke:none;fill-rule:nonzero;fill:rgb(2.745098%,2.745098%,2.745098%);fill-opacity:1;" d="M 118.113281 26.753906 C 118.230469 27.148438 118.34375 27.542969 118.464844 27.949219 C 118.925781 28.210938 119.386719 28.476562 119.859375 28.746094 C 117.324219 28.746094 114.789062 28.746094 112.179688 28.746094 C 112.179688 28.613281 112.179688 28.484375 112.179688 28.347656 C 115.117188 28.152344 115.117188 28.152344 118.113281 27.949219 C 118.113281 27.554688 118.113281 27.160156 118.113281 26.753906 Z M 118.113281 26.753906 "/>
<path style=" stroke:none;fill-rule:nonzero;fill:rgb(16.470589%,16.470589%,16.470589%);fill-opacity:1;" d="M 69.917969 23.570312 C 70.625 23.808594 71.324219 24.078125 72.015625 24.367188 C 72.128906 24.628906 72.246094 24.890625 72.363281 25.164062 C 71.671875 25.425781 70.980469 25.6875 70.269531 25.960938 C 69.898438 25.210938 69.898438 25.210938 69.570312 24.367188 C 69.683594 24.105469 69.800781 23.839844 69.917969 23.570312 Z M 69.917969 23.570312 "/>
<path style=" stroke:none;fill-rule:nonzero;fill:rgb(14.901961%,32.156864%,85.490197%);fill-opacity:1;" d="M 25.914062 10.035156 C 26.953125 10.230469 26.953125 10.230469 28.007812 10.429688 C 28.007812 10.5625 28.007812 10.695312 28.007812 10.828125 C 27.433594 10.828125 26.855469 10.828125 26.261719 10.828125 C 26.261719 11.222656 26.261719 11.617188 26.261719 12.023438 C 26.492188 12.285156 26.722656 12.550781 26.960938 12.820312 C 26.617188 12.820312 26.269531 12.820312 25.914062 12.820312 C 25.796875 13.082031 25.683594 13.347656 25.566406 13.617188 C 25.214844 13.21875 25.214844 13.21875 25.148438 12.273438 C 25.214844 11.226562 25.214844 11.226562 25.914062 10.035156 Z M 25.914062 10.035156 "/>
<path style=" stroke:none;fill-rule:nonzero;fill:rgb(16.470589%,29.803923%,83.529413%);fill-opacity:1;" d="M 3.910156 6.449219 C 4.261719 7.246094 4.261719 7.246094 3.988281 8.195312 C 3.855469 8.554688 3.722656 8.914062 3.585938 9.285156 C 3.453125 9.648438 3.320312 10.011719 3.183594 10.386719 C 3.078125 10.664062 2.972656 10.941406 2.863281 11.226562 C 2.632812 11.226562 2.402344 11.226562 2.164062 11.226562 C 2.332031 9.238281 2.875 8.050781 3.910156 6.449219 Z M 3.910156 6.449219 "/>
<path style=" stroke:none;fill-rule:nonzero;fill:rgb(13.725491%,32.156864%,80.392158%);fill-opacity:1;" d="M 30.804688 4.0625 C 32.101562 4.984375 33.113281 5.765625 33.945312 7.246094 C 33.832031 7.507812 33.714844 7.773438 33.597656 8.042969 C 33.386719 7.789062 33.179688 7.535156 32.964844 7.269531 C 32.234375 6.367188 32.234375 6.367188 31.152344 6.050781 C 31.039062 5.394531 30.921875 4.738281 30.804688 4.0625 Z M 30.804688 4.0625 "/>
<path style=" stroke:none;fill-rule:nonzero;fill:rgb(13.333334%,13.333334%,13.333334%);fill-opacity:1;" d="M 61.539062 20.785156 C 61.769531 20.914062 62 21.046875 62.234375 21.179688 C 62.121094 22.234375 62.003906 23.285156 61.886719 24.367188 C 61.539062 24.367188 61.195312 24.367188 60.839844 24.367188 C 60.894531 24.0625 60.953125 23.757812 61.011719 23.445312 C 61.21875 22.363281 61.21875 22.363281 61.1875 21.179688 C 61.304688 21.050781 61.417969 20.917969 61.539062 20.785156 Z M 61.539062 20.785156 "/>
<path style=" stroke:none;fill-rule:nonzero;fill:rgb(16.862746%,31.37255%,86.274511%);fill-opacity:1;" d="M 24.167969 14.015625 C 24.28125 14.410156 24.398438 14.804688 24.515625 15.210938 C 23.449219 16.253906 23.214844 16.402344 21.722656 16.402344 C 21.722656 16.007812 21.722656 15.617188 21.722656 15.210938 C 21.492188 15.078125 21.261719 14.945312 21.023438 14.8125 C 21.832031 14.941406 22.636719 15.074219 23.46875 15.210938 C 23.699219 14.816406 23.929688 14.421875 24.167969 14.015625 Z M 24.167969 14.015625 "/>
<path style=" stroke:none;fill-rule:nonzero;fill:rgb(15.294118%,30.19608%,84.705883%);fill-opacity:1;" d="M 3.5625 35.515625 C 3.90625 35.644531 4.253906 35.777344 4.609375 35.914062 C 4.609375 36.175781 4.609375 36.4375 4.609375 36.710938 C 5.070312 36.710938 5.53125 36.710938 6.007812 36.710938 C 6.007812 37.234375 6.007812 37.761719 6.007812 38.300781 C 4.667969 37.722656 4.21875 36.9375 3.5625 35.515625 Z M 3.5625 35.515625 "/>
<path style=" stroke:none;fill-rule:nonzero;fill:rgb(9.803922%,9.803922%,9.803922%);fill-opacity:1;" d="M 123.003906 19.191406 C 123.351562 19.585938 123.695312 19.980469 124.050781 20.386719 C 123.707031 20.515625 123.359375 20.648438 123.003906 20.785156 C 123.003906 21.308594 123.003906 21.835938 123.003906 22.375 C 122.660156 22.246094 122.3125 22.113281 121.957031 21.976562 C 122.300781 21.058594 122.648438 20.136719 123.003906 19.191406 Z M 123.003906 19.191406 "/>
<path style=" stroke:none;fill-rule:nonzero;fill:rgb(0%,0%,0%);fill-opacity:1;" d="M 73.410156 20.386719 C 73.527344 20.386719 73.640625 20.386719 73.761719 20.386719 C 73.789062 20.957031 73.808594 21.53125 73.828125 22.101562 C 73.84375 22.582031 73.84375 22.582031 73.863281 23.066406 C 73.738281 24.160156 73.449219 24.484375 72.714844 25.164062 C 72.945312 23.570312 73.179688 21.976562 73.410156 20.386719 Z M 73.410156 20.386719 "/>
<path style=" stroke:none;fill-rule:nonzero;fill:rgb(16.470589%,30.588236%,84.313726%);fill-opacity:1;" d="M 6.007812 38.300781 C 7.1875 38.425781 7.1875 38.425781 8.453125 38.699219 C 8.683594 39.09375 8.914062 39.488281 9.148438 39.894531 C 7.214844 39.648438 7.214844 39.648438 6.398438 38.875 C 6.269531 38.683594 6.140625 38.496094 6.007812 38.300781 Z M 6.007812 38.300781 "/>
<path style=" stroke:none;fill-rule:nonzero;fill:rgb(0%,0%,0%);fill-opacity:1;" d="M 131.386719 25.164062 C 131.617188 25.164062 131.847656 25.164062 132.085938 25.164062 C 131.96875 25.425781 131.855469 25.6875 131.734375 25.960938 C 131.621094 25.695312 131.503906 25.433594 131.386719 25.164062 Z M 131.386719 25.164062 "/>
<path style=" stroke:none;fill-rule:nonzero;fill:rgb(0%,0%,0%);fill-opacity:1;" d="M 131.734375 18.792969 C 131.851562 19.054688 131.964844 19.316406 132.085938 19.589844 C 131.855469 19.457031 131.625 19.324219 131.386719 19.191406 C 131.5 19.058594 131.617188 18.929688 131.734375 18.792969 Z M 131.734375 18.792969 "/>
<path style=" stroke:none;fill-rule:nonzero;fill:rgb(0%,0%,0%);fill-opacity:1;" d="M 131.386719 22.773438 C 132.085938 23.171875 132.085938 23.171875 132.085938 23.171875 Z M 131.386719 22.773438 "/>
</g>
</svg>
